<svg width="73" height="70" viewBox="0 0 73 70" fill="none" xmlns="http://www.w3.org/2000/svg">
<path d="M52.1727 44.0252H48.8754L47.7067 42.9445C51.797 38.3819 54.2596 32.4585 54.2596 26.0149C54.2596 11.6467 42.1138 0 27.1298 0C12.1458 0 0 11.6467 0 26.0149C0 40.3831 12.1458 52.0297 27.1298 52.0297C33.8496 52.0297 40.0269 49.6684 44.785 45.7461L45.912 46.8668V50.0286L66.781 70L73 64.0366L52.1727 44.0252ZM27.1298 44.0252C16.737 44.0252 8.34763 35.9806 8.34763 26.0149C8.34763 16.0492 16.737 8.00457 27.1298 8.00457C37.5226 8.00457 45.912 16.0492 45.912 26.0149C45.912 35.9806 37.5226 44.0252 27.1298 44.0252Z" fill="black"/>
</svg>
